<svg width="24" height="24" viewBox="0 0 24 24" fill="none" xmlns="http://www.w3.org/2000/svg">
<path d="M22.2 12.0281C22.2 7.37343 19.0546 3.31406 14.5453 2.15624C14.114 2.04374 13.6734 2.30624 13.5656 2.73749C13.4531 3.16874 13.7156 3.60937 14.1468 3.71718C17.939 4.68749 20.5875 8.10937 20.5875 12.0281C20.5875 15.4828 18.5296 18.5437 15.45 19.8891L16.1953 18.1547C16.3687 17.7469 16.1812 17.2734 15.7734 17.0953C15.3656 16.9219 14.8921 17.1094 14.714 17.5172L13.2609 20.9016C13.0875 21.3094 13.275 21.7828 13.6828 21.9609L17.0671 23.4141C17.5734 23.5922 17.9953 23.2969 18.1265 22.9922C18.3 22.5844 18.1125 22.1109 17.7046 21.9328L16.2328 21.3C19.8187 19.6781 22.2 16.0781 22.2 12.0281Z" fill="black"/>
<path d="M9.86245 20.3391C6.07026 19.364 3.42183 15.9469 3.42183 12.0281C3.42183 8.6203 5.42339 5.59686 8.43276 4.22343L7.73433 5.8453C7.56089 6.25311 7.73901 6.7453 8.1562 6.90468C8.6437 7.08749 9.0562 6.86718 9.21558 6.4828L10.6687 3.09374C10.8093 2.76561 10.8046 2.27343 10.2468 2.03436L6.86245 0.581239C6.45464 0.407801 5.9812 0.595301 5.80308 1.00311C5.62964 1.41093 5.81714 1.88436 6.22495 2.06249L7.79995 2.73749C4.19995 4.36405 1.80933 7.96874 1.80933 12.0281C1.80933 16.6828 4.95933 20.7375 9.46401 21.9C10.0078 22.0406 10.35 21.6844 10.4437 21.3187C10.5515 20.8875 10.2937 20.4516 9.86245 20.3391Z" fill="black"/>
<path d="M13.903 15.0656C14.3155 14.6344 14.5217 14.0906 14.5217 13.4437C14.5217 13.1484 14.4702 12.8766 14.3717 12.6234C14.2733 12.3703 14.1327 12.1547 13.9499 11.9672C13.767 11.7844 13.528 11.6297 13.2374 11.4984C13.0827 11.4328 12.7733 11.3391 12.2999 11.2219V8.53124C12.6045 8.59218 12.8436 8.72343 13.0217 8.92031C13.1952 9.11718 13.3124 9.39843 13.3686 9.76406L14.3342 9.61874C14.2499 9.02812 14.0061 8.55937 13.5983 8.22187C13.2795 7.95468 12.8483 7.79531 12.3045 7.74374V7.29843H11.7514V7.74374C11.1327 7.80468 10.6639 7.97812 10.3499 8.25468C9.87642 8.66718 9.64204 9.20624 9.64204 9.87187C9.64204 10.2469 9.72173 10.5797 9.88579 10.875C10.0452 11.1703 10.2749 11.4 10.5749 11.5641C10.978 11.7891 11.3717 11.9391 11.7561 12.0094V14.9859C11.3905 14.9484 11.0717 14.7609 10.8092 14.4281C10.6264 14.1937 10.4952 13.8234 10.4249 13.3219L9.48267 13.5C9.51548 13.9828 9.64204 14.3953 9.85298 14.7328C10.0639 15.0703 10.317 15.3141 10.6124 15.4641C10.903 15.6141 11.2874 15.7172 11.7514 15.7781V16.7109H12.3045V15.7641C12.9608 15.7312 13.4952 15.4969 13.903 15.0656ZM11.7561 11.1047C11.3295 10.9781 11.0295 10.8047 10.8514 10.5891C10.6733 10.3734 10.5842 10.1062 10.5842 9.78749C10.5842 9.46406 10.6874 9.18749 10.8983 8.95312C11.1092 8.71874 11.3952 8.57343 11.7561 8.51718V11.1047ZM13.2045 14.5078C12.9655 14.7797 12.6655 14.9344 12.3045 14.9812V12.1359C12.8061 12.3 13.1436 12.4828 13.3124 12.6891C13.4811 12.8953 13.5655 13.1672 13.5655 13.5094C13.5608 13.9031 13.4436 14.2406 13.2045 14.5078Z" fill="black"/>
</svg>
