<svg width="20" height="20" viewBox="0 0 20 20" fill="none" xmlns="http://www.w3.org/2000/svg">
<g clip-path="url(#clip0_20_131)">
<path d="M9.99996 7.78483C9.85909 7.78483 9.72148 7.7986 9.58785 7.82387L7.00458 2.94221C6.83573 2.62317 6.44022 2.50134 6.12122 2.67023C5.80218 2.83903 5.6804 3.23455 5.84924 3.55359L8.43212 8.43463C8.04266 8.82413 7.81495 9.34387 7.78763 9.88744C7.77735 10.0922 7.79682 10.2978 7.83739 10.4794L5.62318 11.7404C5.30955 11.919 5.20009 12.3181 5.37874 12.6318C5.49926 12.8434 5.72005 12.962 5.94728 12.962C6.05695 12.962 6.16806 12.9344 6.27011 12.8762L8.48562 11.6145C8.88205 11.9865 9.41464 12.2151 9.99992 12.2151C11.2213 12.2151 12.215 11.2214 12.215 9.99999C12.215 8.77855 11.2214 7.78483 9.99996 7.78483ZM9.99996 10.9079C9.49813 10.9079 9.09199 10.4985 9.09199 9.99999C9.09199 9.49311 9.50571 9.09202 9.99996 9.09202C10.5006 9.09202 10.9079 9.49934 10.9079 9.99999C10.9078 10.5006 10.5006 10.9079 9.99996 10.9079Z" fill="black"/>
<path d="M10 0C4.47717 0 0 4.47717 0 10C0 15.5228 4.47717 20 10 20C15.5228 20 20 15.5228 20 10C20 4.47717 15.5228 0 10 0ZM16.1468 16.1468C14.6599 17.6336 12.7293 18.5155 10.6536 18.6687L10.6536 17.6589C10.6536 17.298 10.361 17.0053 10 17.0053C9.63913 17.0053 9.34645 17.298 9.34645 17.6589L9.34641 18.6687C7.27072 18.5154 5.34009 17.6336 3.85329 16.1468C2.36641 14.6599 1.48458 12.7293 1.33129 10.6536H2.34105C2.702 10.6536 2.99464 10.361 2.99464 10C2.99464 9.63904 2.702 9.34641 2.34105 9.34641H1.33129C1.48458 7.27068 2.36641 5.34009 3.85325 3.85325C5.34009 2.36641 7.27072 1.48453 9.34641 1.33124V2.341C9.34641 2.70196 9.63904 2.9946 10 2.9946C10.361 2.9946 10.6536 2.70196 10.6536 2.341V1.33129C12.7293 1.48453 14.6599 2.36641 16.1467 3.85325C17.6336 5.34009 18.5154 7.27068 18.6687 9.34641H17.6589C17.298 9.34641 17.0053 9.63904 17.0053 10C17.0053 10.361 17.298 10.6536 17.6589 10.6536H18.6687C18.5155 12.7293 17.6336 14.6599 16.1468 16.1468Z" fill="black"/>
</g>
<defs>
<clipPath id="clip0_20_131">
<rect width="20" height="20" fill="white"/>
</clipPath>
</defs>
</svg>
