<svg width="16" height="16" viewBox="0 0 16 16" fill="none" xmlns="http://www.w3.org/2000/svg">
<path d="M12.8259 3.34717C13.8009 3.34717 14.5982 4.1083 14.6559 5.06882L14.6593 5.1805V10.8506C14.6593 11.8256 13.8981 12.6228 12.9376 12.6805L12.8259 12.6839H3.17403C2.19901 12.6839 1.40176 11.9228 1.34404 10.9622L1.3407 10.8506V5.1805C1.3407 4.20548 2.10183 3.40823 3.06235 3.35051L3.17403 3.34717H12.8259ZM13.6587 7.32983H2.34003L2.3407 10.8506C2.3407 11.282 2.66861 11.6369 3.08883 11.6796L3.17403 11.6839H12.8259C13.2574 11.6839 13.6123 11.356 13.655 10.9358L13.6593 10.8506L13.6587 7.32983ZM12.1686 9.6667C12.4447 9.6667 12.6686 9.89055 12.6686 10.1667C12.6686 10.4198 12.4805 10.629 12.2364 10.6621L12.1686 10.6667H10.5019C10.2258 10.6667 10.0019 10.4428 10.0019 10.1667C10.0019 9.91357 10.19 9.70437 10.4341 9.67126L10.5019 9.6667H12.1686ZM12.8259 4.34717H3.17403C2.74256 4.34717 2.38768 4.67508 2.345 5.0953L2.3407 5.1805L2.34003 6.32983H13.6587L13.6593 5.1805C13.6593 4.74903 13.3313 4.39415 12.9111 4.35147L12.8259 4.34717Z" fill="#212121"/>
</svg>
